<svg width="26" height="26" viewBox="0 0 26 26" fill="none" xmlns="http://www.w3.org/2000/svg">
<rect y="0.226562" width="25.4826" height="25.4826" rx="5.88061" fill="#DC5B5B"/>
<path d="M20.51 7.65005C20.51 5.44632 13.9559 5.38281 13.2065 5.38281C12.4571 5.38281 5.9031 5.44632 5.9031 7.65005C5.89688 7.72401 5.89688 7.79837 5.9031 7.87233C6.44927 11.6828 7.41459 18.0336 7.8909 18.7195C8.36721 19.4054 9.73899 20.6248 13.2065 20.6248C16.6741 20.6248 18.0077 19.4308 18.4968 18.7195C18.9858 18.0082 19.9384 11.6828 20.4846 7.87233C20.4989 7.79903 20.5074 7.7247 20.51 7.65005ZM13.2065 6.65297C16.5217 6.65297 18.6873 7.24995 19.1763 7.65005C18.6873 8.0438 16.5217 8.64078 13.2065 8.64078C9.89141 8.64078 7.72578 8.0438 7.23677 7.65005C7.72578 7.24995 9.89141 6.65297 13.2065 6.65297ZM10.3995 17.6081H10.3487C10.2311 17.6074 10.1178 17.5638 10.0301 17.4854C9.94236 17.4071 9.88628 17.2994 9.87236 17.1826L9.23727 11.4669C9.2306 11.4043 9.23632 11.3411 9.25409 11.2807C9.27186 11.2204 9.30135 11.1642 9.34086 11.1152C9.38037 11.0663 9.42913 11.0256 9.48437 10.9955C9.5396 10.9654 9.60023 10.9464 9.66278 10.9398C9.72533 10.9331 9.78858 10.9388 9.84892 10.9566C9.90926 10.9744 9.96551 11.0038 10.0145 11.0434C10.0634 11.0829 10.1041 11.1316 10.1342 11.1869C10.1643 11.2421 10.1832 11.3027 10.1899 11.3653L10.825 17.081C10.8358 17.2068 10.7976 17.3319 10.7183 17.4302C10.639 17.5284 10.5247 17.5922 10.3995 17.6081ZM13.6828 17.4494C13.6828 17.5757 13.6327 17.6968 13.5433 17.7862C13.454 17.8755 13.3329 17.9257 13.2065 17.9257C13.0802 17.9257 12.9591 17.8755 12.8697 17.7862C12.7804 17.6968 12.7302 17.5757 12.7302 17.4494V11.7336C12.7302 11.6073 12.7804 11.4861 12.8697 11.3968C12.9591 11.3075 13.0802 11.2573 13.2065 11.2573C13.3329 11.2573 13.454 11.3075 13.5433 11.3968C13.6327 11.4861 13.6828 11.6073 13.6828 11.7336V17.4494ZM16.5407 17.1826C16.5268 17.2994 16.4707 17.4071 16.383 17.4854C16.2953 17.5638 16.182 17.6074 16.0644 17.6081H16.0136C15.8883 17.5922 15.7741 17.5284 15.6948 17.4302C15.6155 17.3319 15.5772 17.2068 15.5881 17.081L16.2232 11.3653C16.2366 11.239 16.2997 11.1232 16.3986 11.0434C16.4975 10.9636 16.624 10.9263 16.7503 10.9398C16.8766 10.9532 16.9924 11.0164 17.0722 11.1152C17.152 11.2141 17.1893 11.3406 17.1758 11.4669L16.5407 17.1826Z" fill="white"/>
</svg>
