<svg width="59" height="58" viewBox="0 0 59 58" fill="none" xmlns="http://www.w3.org/2000/svg">
<g filter="url(#filter0_d_539_3370)">
<rect x="8.34375" y="7.84375" width="37.6834" height="37.6834" rx="8.69617" fill="#5B8BDC"/>
<path d="M19.5618 29.2758C19.5202 29.2351 19.4683 29.2063 19.4116 29.1926C19.355 29.179 19.2957 29.1808 19.24 29.1981C19.1843 29.2153 19.1343 29.2472 19.0953 29.2905C19.0563 29.3338 19.0297 29.3869 19.0184 29.444L18.1902 33.5072C18.1713 33.6117 18.1779 33.7192 18.2095 33.8205C18.241 33.9219 18.2965 34.0142 18.3714 34.0895C18.4291 34.1517 18.4993 34.201 18.5773 34.2345C18.6553 34.2679 18.7394 34.2846 18.8243 34.2836H18.9537L23.0168 33.4684C23.074 33.457 23.127 33.4304 23.1703 33.3914C23.2136 33.3524 23.2456 33.3024 23.2628 33.2467C23.28 33.1911 23.2819 33.1318 23.2682 33.0751C23.2545 33.0185 23.2258 32.9666 23.185 32.9249L19.5618 29.2758Z" fill="white"/>
<path d="M33.7172 18.2272C33.0324 17.7057 32.1801 17.4533 31.3217 17.5177C30.4633 17.5821 29.6583 17.9588 29.0588 18.5766L20.5443 27.0911C20.513 27.1213 20.4881 27.1575 20.4711 27.1975C20.4541 27.2375 20.4453 27.2806 20.4453 27.324C20.4453 27.3675 20.4541 27.4106 20.4711 27.4506C20.4881 27.4906 20.513 27.5268 20.5443 27.557L24.8792 31.8919C24.9094 31.9232 24.9456 31.9481 24.9856 31.9651C25.0256 31.9821 25.0686 31.9909 25.1121 31.9909C25.1556 31.9909 25.1987 31.9821 25.2387 31.9651C25.2787 31.9481 25.3149 31.9232 25.3451 31.8919L33.989 23.2479C34.3208 22.9106 34.5785 22.5078 34.7459 22.0652C34.9132 21.6227 34.9865 21.1501 34.9609 20.6776C34.9353 20.2052 34.8115 19.7432 34.5974 19.3213C34.3832 18.8994 34.0835 18.5268 33.7172 18.2272Z" fill="white"/>
</g>
<defs>
<filter id="filter0_d_539_3370" x="0.8323" y="0.3323" width="57.592" height="57.592" filterUnits="userSpaceOnUse" color-interpolation-filters="sRGB">
<feFlood flood-opacity="0" result="BackgroundImageFix"/>
<feColorMatrix in="SourceAlpha" type="matrix" values="0 0 0 0 0 0 0 0 0 0 0 0 0 0 0 0 0 0 127 0" result="hardAlpha"/>
<feOffset dx="2.44275" dy="2.44275"/>
<feGaussianBlur stdDeviation="4.9771"/>
<feComposite in2="hardAlpha" operator="out"/>
<feColorMatrix type="matrix" values="0 0 0 0 0 0 0 0 0 0 0 0 0 0 0 0 0 0 0.19 0"/>
<feBlend mode="normal" in2="BackgroundImageFix" result="effect1_dropShadow_539_3370"/>
<feBlend mode="normal" in="SourceGraphic" in2="effect1_dropShadow_539_3370" result="shape"/>
</filter>
</defs>
</svg>
