<svg width="24" height="24" viewBox="0 0 24 24" fill="none" xmlns="http://www.w3.org/2000/svg">
<path d="M6.60156 10.2969H10.2005" stroke="#292D32" stroke-width="1.24" stroke-linecap="round" stroke-linejoin="round"/>
<path d="M19.9477 11.1953H17.6061C16.0007 11.1953 14.6992 12.4038 14.6992 13.8945C14.6992 15.3853 16.0007 16.5938 17.6061 16.5938H19.9477C20.0227 16.5938 20.0602 16.5938 20.0918 16.5919C20.5771 16.5623 20.9635 16.2035 20.9954 15.7529C20.9974 15.7235 20.9974 15.6886 20.9974 15.6191V12.17C20.9974 12.1005 20.9974 12.0656 20.9954 12.0362C20.9635 11.5856 20.5771 11.2268 20.0918 11.1972C20.0602 11.1953 20.0227 11.1953 19.9477 11.1953Z" stroke="#292D32" stroke-width="1.24"/>
<path d="M20.0637 11.194C19.9938 9.50945 19.7682 8.47658 19.041 7.74943C17.987 6.69531 16.2903 6.69531 12.8972 6.69531H10.198C6.80481 6.69531 5.10824 6.69531 4.05411 7.74943C3 8.80355 3 10.5002 3 13.8933C3 17.2864 3 18.983 4.05411 20.0371C5.10824 21.0912 6.80481 21.0912 10.198 21.0912H12.8972C16.2903 21.0912 17.987 21.0912 19.041 20.0371C19.7682 19.31 19.9938 18.2771 20.0637 16.5925" stroke="#292D32" stroke-width="1.24"/>
<path d="M6.60156 6.69924L9.96255 4.47069C10.909 3.8431 12.1913 3.8431 13.1378 4.47069L16.4988 6.69924" stroke="#292D32" stroke-width="1.24" stroke-linecap="round"/>
<path d="M17.3906 13.8984H17.3978" stroke="#292D32" stroke-width="1.24" stroke-linecap="round" stroke-linejoin="round"/>
</svg>
