<svg width="20" height="20" viewBox="0 0 21 19" fill="none" xmlns="http://www.w3.org/2000/svg">
<path d="M15.444 17.9141H5.99957C2.22179 17.9141 1.27734 16.9696 1.27734 13.1918V5.63628C1.27734 1.85851 2.22179 0.914062 5.99957 0.914062H15.444C19.2218 0.914062 20.1662 1.85851 20.1662 5.63628V13.1918C20.1662 16.9696 19.2218 17.9141 15.444 17.9141Z" stroke="#292D32" stroke-width="1.24" stroke-linecap="round" stroke-linejoin="round"/>
<path d="M12.6094 5.64062H17.3316" stroke="#292D32" stroke-width="1.24" stroke-linecap="round" stroke-linejoin="round"/>
<path d="M13.5586 9.41406H17.3364" stroke="#292D32" stroke-width="1.24" stroke-linecap="round" stroke-linejoin="round"/>
<path d="M15.4453 13.1875H17.3342" stroke="#292D32" stroke-width="1.24" stroke-linecap="round" stroke-linejoin="round"/>
<path d="M7.41648 8.74701C8.36058 8.74701 9.12592 7.98167 9.12592 7.03757C9.12592 6.09347 8.36058 5.32812 7.41648 5.32812C6.47238 5.32812 5.70703 6.09347 5.70703 7.03757C5.70703 7.98167 6.47238 8.74701 7.41648 8.74701Z" stroke="#292D32" stroke-width="1.24" stroke-linecap="round" stroke-linejoin="round"/>
<path d="M10.7205 13.5027C10.5883 12.1333 9.50215 11.0566 8.13271 10.9339C7.66049 10.8866 7.17882 10.8866 6.69715 10.9339C5.32771 11.0661 4.2416 12.1333 4.10938 13.5027" stroke="#292D32" stroke-width="1.24" stroke-linecap="round" stroke-linejoin="round"/>
</svg>
