<svg width="21" height="21" viewBox="0 0 21 21" fill="none" xmlns="http://www.w3.org/2000/svg">
<path d="M19.7131 18.0104L15.1747 13.472C16.2673 12.0174 16.8572 10.2469 16.8551 8.42764C16.8551 3.78065 13.0745 0 8.42759 0C3.78065 0 0 3.78065 0 8.42764C0 13.0745 3.78065 16.8552 8.42759 16.8552C10.2469 16.8572 12.0174 16.2674 13.472 15.1747L18.0104 19.7131C18.2401 19.9185 18.5398 20.0281 18.8478 20.0195C19.1559 20.0109 19.4489 19.8846 19.6668 19.6668C19.8846 19.4489 20.0109 19.1559 20.0195 18.8478C20.0281 18.5398 19.9185 18.2402 19.7131 18.0104ZM2.40785 8.42764C2.40785 7.23703 2.76088 6.07316 3.42238 5.08322C4.08384 4.09333 5.02398 3.32177 6.12393 2.86609C7.22388 2.41049 8.43423 2.29128 9.60198 2.52357C10.7696 2.75581 11.8423 3.32909 12.6842 4.171C13.5261 5.01292 14.0994 6.0855 14.3316 7.25325C14.5639 8.42091 14.4447 9.63131 13.9891 10.7313C13.5334 11.8312 12.7619 12.7713 11.7719 13.4328C10.782 14.0943 9.6182 14.4473 8.42759 14.4473C6.83165 14.4454 5.30164 13.8106 4.17309 12.6821C3.04462 11.5535 2.40976 10.0235 2.40785 8.42764Z" fill="#949494"/>
</svg>
